<svg xmlns="http://www.w3.org/2000/svg" width="222.049" height="106.095" viewBox="0 0 222.049 106.095">
  <g id="Grupo_1049" data-name="Grupo 1049" transform="translate(-55.481 -245.352)">
    <path id="Caminho_1074" data-name="Caminho 1074" d="M275.7,328.409c3.3-8.138-2.224-17.136-11.962-14.763a15.9,15.9,0,0,0-11.565,1.038,13.816,13.816,0,0,0-11.109-.872,13.254,13.254,0,0,0-7.318-.283c-2.937-.729-3.956-.141-5.6.119a15.239,15.239,0,0,0-4.645-.611c-4.407-9.3-17.95-9.284-22.186.15a12.447,12.447,0,0,0-3.134.717,16.253,16.253,0,0,0-2.077-.538,15.451,15.451,0,0,0,10.831-17.712,15.454,15.454,0,0,0-.023-25.539,15.4,15.4,0,0,0-18.01-18.028,15.462,15.462,0,0,0-25.53,0,15.439,15.439,0,0,0-18.04,18.038,15.46,15.46,0,0,0,0,25.528,15.459,15.459,0,0,0,10.648,17.658,9.49,9.49,0,0,0-2,.331,16.479,16.479,0,0,0-3.529-.549,9.691,9.691,0,0,0-4.042-5.466c-2.749-1.965-5.681-1.528-9.37-1.359-3.108.143-5.212-.084-7.809,1.629a9.6,9.6,0,0,0-4.2,5.3,16.566,16.566,0,0,0-11.75,2.905,9.9,9.9,0,0,0-9.936-2.457,15.454,15.454,0,0,0-4.64-.609c-4.407-9.3-17.95-9.284-22.186.15a12.473,12.473,0,0,0-3.135.717c-2.883-1.561-13.133-.886-16.308,4.955a11.386,11.386,0,0,0,0,11.6c-1.815,12.527,11.987,18.7,22.083,13.688a14.229,14.229,0,0,0,11.562.92,13.86,13.86,0,0,0,8.964.22,16.52,16.52,0,0,0,12.012-1.648,14.075,14.075,0,0,0,11.957,1.648,14.434,14.434,0,0,0,8.284-.214l1.343.421c5.669,8.724,20.5,7.1,26.418,0a14.306,14.306,0,0,0,7.711-.2,12.867,12.867,0,0,0,7.452.02c1.462.215,8.721,1.377,12.248-2.271,4.84,3.57,11.556,3.741,16.852,1.111a14.232,14.232,0,0,0,11.56.92,13.859,13.859,0,0,0,8.964.22,13.7,13.7,0,0,0,7.449.026c3.373.674,8.585.209,9.49-.537a14.109,14.109,0,0,0,9.567.239,13.829,13.829,0,0,0,9.093.272c2.471,1.328,12.92.415,15.9-5.419,2.031-3.983,2.212-7.422-.274-11.461" transform="translate(0 0)" fill="#fff"/>
    <path id="Caminho_1075" data-name="Caminho 1075" d="M189.5,271.182a4.568,4.568,0,1,1-1.674-6.243,4.566,4.566,0,0,1,1.674,6.243m-14.533,3.88L170.1,283.5a.429.429,0,0,1-.386.253,5.523,5.523,0,0,1-1.895-7.442l2.331-4.037a2.784,2.784,0,0,1,4.822,2.785m32.739,6.328a11.02,11.02,0,0,0-7.2-10.338.423.423,0,0,1-.319-.409,11.175,11.175,0,0,0-2.159-12.624,11.019,11.019,0,0,0-12.395-2.222c-.4.065-.556-.042-.62-.207a11.02,11.02,0,0,0-20.691-.056.453.453,0,0,1-.412.331,11.179,11.179,0,0,0-12.624,2.155,11.021,11.021,0,0,0-2.2,12.442c.041.362-.072.516-.235.574a11.023,11.023,0,0,0,0,20.709.421.421,0,0,1,.278.4,11.175,11.175,0,0,0,2.159,12.622,11.02,11.02,0,0,0,12.756,2.048l8.281-13.87a.479.479,0,0,0,.092-.26.466.466,0,0,0-.233-.379,5.571,5.571,0,0,1-1.662-7.368l5.251-9.094a5.569,5.569,0,0,1,10.382,3.137.435.435,0,0,0,.208.367l6.734,4.125c.392.066.528-.036.6-.176l2.388-4.135a1.027,1.027,0,1,1,1.777,1.027l-2.492,4.316c-.054.335,0,.45.089.526a2.238,2.238,0,0,1,.235,2.666,2.173,2.173,0,0,1-2.344.986c-.29-.021-.426.062-.5.188l-6.131,10.621a.48.48,0,0,0-.053.275l.653,7.552a.424.424,0,0,0,.365.379,11.022,11.022,0,0,0,12.542-15.369c-.042-.367.087-.523.242-.579a11.024,11.024,0,0,0,7.237-10.353m-26.394,7.125-1.177,2.155a.43.43,0,0,0,.147.32l4.686,4.2a5.552,5.552,0,0,1,.642.8.466.466,0,0,0,.379.236.459.459,0,0,0,.386-.254l4.683-8.222a.446.446,0,0,0-.272-.394l-6.161-3.66a.465.465,0,0,0-.256-.086.426.426,0,0,0-.362.2l-1.123,1.979Zm87.917,39.716c-.189-.714,2.967-7.282.165-9.994-2.071-2-3.556-2.517-7.239-1.462a12.483,12.483,0,0,0-11.7,1.74c-2.819-2.926-7.35-3.047-10.9-1.483a10.327,10.327,0,0,0-7.529-.326c-1.866-.871-3.568-.343-5.472.069a12.146,12.146,0,0,0-7.876-.2c-.108-9.251-14.276-10.5-15.377-.236a8.049,8.049,0,0,0-6.49.9,10.029,10.029,0,0,0-7.726-.549,8.045,8.045,0,0,0-4.1-.636,2.661,2.661,0,0,1-2.613-2.256l-.362-4.6c-.05-.534-.707-.564-.914.024l-3.546,6.143a1.036,1.036,0,1,1-1.85-.914l5.849-10.132a50.037,50.037,0,0,0-.331-5.045.593.593,0,0,0-.171-.34c-.389-.337-2.487-2.153-3.344-2.917-.517-.41-.717-.059-.935.347-1.726,2.965-9.53,16.757-10.539,18.264-.854,1.275-1.591,1.466-3.734,1.687a9.044,9.044,0,0,0-3.385,1.329c-2.269-1.991-3.9-1.52-6.723-.878a12.392,12.392,0,0,0-7.83-.247,5.507,5.507,0,0,0-.674-5.242c-2.287-3-4.87-1.922-8.094-2.01-5.048-.14-8.737,1.105-8.293,7.129l-1.777.37c-6.311-2.457-13.072,1.036-15.926,6.891,2.035-6.072-3.628-8.7-8.043-6.891a12.146,12.146,0,0,0-7.876-.2c-.02-9.77-15.058-9.954-15.378-.236a8.049,8.049,0,0,0-6.49.9c-1.668-1.314-6.711-1.809-11.117.889-2.926,1.791-3.507,7.439-.462,9.49-3.131,11.076,9.7,15.639,17.459,9.636,2.847,3.049,7.8,3.317,11.41,1.547a10.391,10.391,0,0,0,8.869.28c3.239,1.6,10.451.286,12.052-3.039,2.58,3.88,7.783,4.81,11.918,3.039a11.051,11.051,0,0,0,8.43-.277,9.4,9.4,0,0,0,4.126,1.077c2.965,8.7,18.619,6.4,21.912-1.319a10.333,10.333,0,0,0,9.288.519,10.419,10.419,0,0,0,7.147.176c.959.475,6.143.292,6.421.28,3.973-.164,5.072-3.54,5.535-6.658,1.812,7.992,12.07,8.726,17.693,4.376,2.848,3.049,7.8,3.317,11.41,1.547a10.4,10.4,0,0,0,8.872.28,10.4,10.4,0,0,0,7.115.185c.08.22,2.12.323,4.382.286,2.907.066,4.334-.415,5.319-1.32,2.8,1.983,6.785,1.937,9.833.526a10.375,10.375,0,0,0,8.948.323c4.078,1.525,8.945.183,11.079-1.732,2.162-1.94,2.9-7.082-.421-9.123" transform="translate(1.474 1.503)" fill="#00504a"/>
    <path id="Caminho_1076" data-name="Caminho 1076" d="M76.513,306.074a11.945,11.945,0,0,0,.621-3.735,3.725,3.725,0,0,0-.693-2.383,2.31,2.31,0,0,0-1.908-.868,2.861,2.861,0,0,0-.816.131,2.522,2.522,0,0,0-.752.352,2.475,2.475,0,0,0-.647.705,2.1,2.1,0,0,0-.269,1.122,2.721,2.721,0,0,0,.289,1.338,4.085,4.085,0,0,0,.668.895,9.219,9.219,0,0,0,.705.626,1.989,1.989,0,0,1,.562.639,4.543,4.543,0,0,1,.105.588c.017.174.027.335.027.484a4.876,4.876,0,0,1-1.3,3.57,4.172,4.172,0,0,1-3.075,1.323,2.07,2.07,0,0,1-1.717-.666,2.774,2.774,0,0,1-.532-1.779,5.644,5.644,0,0,1,.239-1.406c.161-.589.314-1.108.462-1.562.165-.505.323-1.078.475-1.713a7.882,7.882,0,0,0,.227-1.806A2.516,2.516,0,0,0,68.336,300a3.435,3.435,0,0,0-2.406-.777,6.048,6.048,0,0,0-1.836.307q-.97.307-2.031.74l-.289,1.174q.314-.117.752-.245a3.063,3.063,0,0,1,.859-.131,1.625,1.625,0,0,1,1.126.3,1.35,1.35,0,0,1,.314,1.006A5.6,5.6,0,0,1,64.6,303.9c-.152.537-.314,1.078-.489,1.629q-.311.968-.52,1.686a4.9,4.9,0,0,0-.208,1.349,3.731,3.731,0,0,0,1.371,3.113,5.8,5.8,0,0,0,3.7,1.086,7.463,7.463,0,0,0,3.37-.809,8.749,8.749,0,0,0,2.952-2.522,11.149,11.149,0,0,0,1.744-3.356m5.6-6.986a6.067,6.067,0,0,0-1.831.307q-.968.307-2.028.738l-.287,1.176c.209-.078.46-.159.75-.245a2.98,2.98,0,0,1,.857-.129,1.689,1.689,0,0,1,1.149.287,1.375,1.375,0,0,1,.3,1.018,4.517,4.517,0,0,1-.1.895c-.065.328-.146.674-.242,1.041L79.6,307.989q-.144.6-.209,1.078a6.866,6.866,0,0,0-.065.934,2.472,2.472,0,0,0,.868,1.941,3.557,3.557,0,0,0,2.433.765,5.42,5.42,0,0,0,1.788-.269q.771-.266,2.063-.777l.287-1.176a5.038,5.038,0,0,1-.713.241,3.38,3.38,0,0,1-.884.134A1.878,1.878,0,0,1,84,310.586a1.279,1.279,0,0,1-.338-1.033,5.467,5.467,0,0,1,.105-.889c.071-.391.147-.74.235-1.044l1.074-3.8a5.878,5.878,0,0,0,.217-1.15c.039-.418.059-.711.059-.875a2.5,2.5,0,0,0-.844-1.955,3.5,3.5,0,0,0-2.4-.75m4.2-2.866a2.282,2.282,0,0,0,0-3.386,2.546,2.546,0,0,0-1.809-.705,2.576,2.576,0,0,0-1.818.705,2.27,2.27,0,0,0,0,3.386,2.589,2.589,0,0,0,1.818.7,2.559,2.559,0,0,0,1.809-.7m12.166,6.216-1.662,7.1a5.253,5.253,0,0,1-1.048.883,2.161,2.161,0,0,1-1.179.361,2.011,2.011,0,0,1-1-.224,1.653,1.653,0,0,1-.632-.627A2.8,2.8,0,0,1,92.64,309a6.867,6.867,0,0,1-.1-1.191,12.3,12.3,0,0,1,.311-2.765,9.571,9.571,0,0,1,.86-2.373A5.773,5.773,0,0,1,95,301.02a2.373,2.373,0,0,1,1.579-.621,2.212,2.212,0,0,1,.937.176,1.5,1.5,0,0,1,.612.517,1.7,1.7,0,0,1,.274.668,3.608,3.608,0,0,1,.078.678m5.58,9.144.289-1.176a6.566,6.566,0,0,1-.728.233,3.424,3.424,0,0,1-.884.143,1.881,1.881,0,0,1-1.179-.283,1.277,1.277,0,0,1-.34-1.027,5.318,5.318,0,0,1,.117-.923q.117-.609.221-1.014l1.914-8.051-.182-.211-4,.835a4.141,4.141,0,0,0-1.442-.747,6.955,6.955,0,0,0-2.054-.274,7.046,7.046,0,0,0-3.051.686,8.155,8.155,0,0,0-2.529,1.863,9.369,9.369,0,0,0-1.708,2.758,8.809,8.809,0,0,0-.641,3.361,5.445,5.445,0,0,0,1.15,3.666,4.257,4.257,0,0,0,3.421,1.34,4.534,4.534,0,0,0,1.338-.188,6.961,6.961,0,0,0,1.153-.475,6.519,6.519,0,0,0,1.039-.651,10.244,10.244,0,0,1,.973-.716,2.783,2.783,0,0,0,1.114,1.367,3.847,3.847,0,0,0,2.147.529,5.469,5.469,0,0,0,1.792-.268q.778-.268,2.068-.777m18.389-9.144-1.66,7.1a5.3,5.3,0,0,1-1.05.883,2.16,2.16,0,0,1-1.177.361,2.013,2.013,0,0,1-1-.224,1.653,1.653,0,0,1-.632-.627,2.839,2.839,0,0,1-.319-.928,6.868,6.868,0,0,1-.1-1.191,12.212,12.212,0,0,1,.313-2.765,9.51,9.51,0,0,1,.859-2.373,5.773,5.773,0,0,1,1.281-1.654,2.374,2.374,0,0,1,1.58-.621,2.221,2.221,0,0,1,.937.176,1.5,1.5,0,0,1,.612.517,1.72,1.72,0,0,1,.272.668,3.608,3.608,0,0,1,.078.678m5.582,9.144.287-1.176a6.567,6.567,0,0,1-.728.233,3.424,3.424,0,0,1-.883.143,1.886,1.886,0,0,1-1.18-.283,1.276,1.276,0,0,1-.34-1.027,5.318,5.318,0,0,1,.117-.923c.078-.406.153-.744.223-1.014l1.913-8.051-.182-.211-4,.835a4.147,4.147,0,0,0-1.441-.747,6.962,6.962,0,0,0-2.054-.274,7.043,7.043,0,0,0-3.053.686,8.172,8.172,0,0,0-2.529,1.863,9.369,9.369,0,0,0-1.708,2.758,8.837,8.837,0,0,0-.639,3.361,5.444,5.444,0,0,0,1.149,3.666,4.257,4.257,0,0,0,3.419,1.34,4.519,4.519,0,0,0,1.338-.188,6.941,6.941,0,0,0,1.156-.475,6.5,6.5,0,0,0,1.038-.651,10.436,10.436,0,0,1,.973-.716,2.786,2.786,0,0,0,1.116,1.367,3.838,3.838,0,0,0,2.146.529,5.479,5.479,0,0,0,1.794-.268q.776-.268,2.068-.777m6.588-3.961,3.508-15.282-.143-.209-6.894.349-.236.962c.358.035.671.074.941.119a2.186,2.186,0,0,1,.719.235,1.169,1.169,0,0,1,.471.444,1.513,1.513,0,0,1,.156.744,2.441,2.441,0,0,1-.027.326c-.017.132-.044.269-.077.418l-2.818,12.266q-.106.483-.189,1.006a6.205,6.205,0,0,0-.086,1,2.438,2.438,0,0,0,.9,1.941,3.707,3.707,0,0,0,2.474.764,6.033,6.033,0,0,0,1.871-.269q.823-.266,2.119-.777l.289-1.176a5.379,5.379,0,0,1-.8.241,4.029,4.029,0,0,1-.889.134,2.188,2.188,0,0,1-1.254-.274,1.2,1.2,0,0,1-.379-1.032,5.313,5.313,0,0,1,.123-.928q.124-.627.217-1.006m14.506-5.207-1.451,7.03a4.485,4.485,0,0,1-1.062.837,2.531,2.531,0,0,1-1.293.393,2.209,2.209,0,0,1-.971-.209,1.718,1.718,0,0,1-.7-.629,2.746,2.746,0,0,1-.38-.949,5.686,5.686,0,0,1-.11-1.159,12.192,12.192,0,0,1,.311-2.767,9.776,9.776,0,0,1,.841-2.35,5.544,5.544,0,0,1,1.256-1.63,2.346,2.346,0,0,1,1.555-.609,2.142,2.142,0,0,1,.983.189,1.806,1.806,0,0,1,.609.519,1.747,1.747,0,0,1,.329.66,2.784,2.784,0,0,1,.084.674m2.755,7.7,2.236-10.631-.182-.211-4,.833a4.253,4.253,0,0,0-1.547-.771,7.776,7.776,0,0,0-2.068-.248,7.02,7.02,0,0,0-3.036.68,7.87,7.87,0,0,0-2.492,1.842,9.271,9.271,0,0,0-1.69,2.738,8.777,8.777,0,0,0-.624,3.313,5.233,5.233,0,0,0,1.213,3.66,4.456,4.456,0,0,0,3.472,1.334,4.791,4.791,0,0,0,1.311-.15,7.382,7.382,0,0,0,1.116-.438,5.74,5.74,0,0,0,.92-.523,8.416,8.416,0,0,1,.857-.561,16.621,16.621,0,0,1-.877,3.147,7.158,7.158,0,0,1-.991,1.738,2.929,2.929,0,0,1-1.135.889,6.1,6.1,0,0,1-1.188.34c-.111-.262-.275-.6-.492-1.023a6.852,6.852,0,0,0-.7-1.113,4.234,4.234,0,0,0-.965-.911,2.15,2.15,0,0,0-1.253-.379,2,2,0,0,0-1.457.594,2.707,2.707,0,0,0,.371,4.043,4.529,4.529,0,0,0,1.54.621,11.539,11.539,0,0,0,2.609.242,11.082,11.082,0,0,0,2.856-.361,7.628,7.628,0,0,0,2.607-1.29,8.365,8.365,0,0,0,2.147-2.466,21.337,21.337,0,0,0,1.444-4.938m14.326-7.678-1.662,7.1a5.253,5.253,0,0,1-1.048.883,2.16,2.16,0,0,1-1.177.361,2.017,2.017,0,0,1-1-.224,1.649,1.649,0,0,1-.63-.627,2.838,2.838,0,0,1-.32-.928,6.865,6.865,0,0,1-.1-1.191,12.3,12.3,0,0,1,.313-2.765,9.57,9.57,0,0,1,.859-2.373,5.772,5.772,0,0,1,1.281-1.654,2.374,2.374,0,0,1,1.58-.621,2.212,2.212,0,0,1,.937.176,1.5,1.5,0,0,1,.612.517,1.7,1.7,0,0,1,.272.668,3.487,3.487,0,0,1,.078.678m5.583,9.144.286-1.176a6.622,6.622,0,0,1-.726.233,3.434,3.434,0,0,1-.884.143,1.886,1.886,0,0,1-1.18-.283,1.282,1.282,0,0,1-.34-1.027,5.2,5.2,0,0,1,.119-.923q.117-.609.221-1.014l1.914-8.051-.182-.211-4,.835a4.133,4.133,0,0,0-1.441-.747,6.955,6.955,0,0,0-2.054-.274,7.048,7.048,0,0,0-3.053.686,8.148,8.148,0,0,0-2.528,1.863,9.373,9.373,0,0,0-1.71,2.758,8.835,8.835,0,0,0-.638,3.361,5.452,5.452,0,0,0,1.147,3.666,4.261,4.261,0,0,0,3.421,1.34,4.526,4.526,0,0,0,1.338-.188,6.977,6.977,0,0,0,1.155-.475,6.5,6.5,0,0,0,1.038-.651,10.439,10.439,0,0,1,.973-.716,2.786,2.786,0,0,0,1.116,1.367,3.842,3.842,0,0,0,2.146.529,5.485,5.485,0,0,0,1.794-.268q.776-.268,2.069-.777m29.533-5.508a11.945,11.945,0,0,0,.621-3.735,3.725,3.725,0,0,0-.693-2.383,2.314,2.314,0,0,0-1.908-.868,2.871,2.871,0,0,0-.818.131,2.513,2.513,0,0,0-.75.352,2.432,2.432,0,0,0-.647.705,2.083,2.083,0,0,0-.269,1.122,2.739,2.739,0,0,0,.287,1.338,4.133,4.133,0,0,0,.668.895,9.267,9.267,0,0,0,.707.626,2.007,2.007,0,0,1,.562.639,4.3,4.3,0,0,1,.105.588c.017.174.026.335.026.484a4.869,4.869,0,0,1-1.3,3.57,4.166,4.166,0,0,1-3.072,1.323,2.071,2.071,0,0,1-1.719-.666,2.765,2.765,0,0,1-.534-1.779,5.658,5.658,0,0,1,.241-1.406c.159-.589.314-1.108.462-1.562.164-.505.322-1.078.474-1.713a7.8,7.8,0,0,0,.229-1.806,2.517,2.517,0,0,0-.847-1.929,3.428,3.428,0,0,0-2.4-.777,6.048,6.048,0,0,0-1.836.307,19.963,19.963,0,0,0-2.55.943,2.178,2.178,0,0,0-.423-.684,2.255,2.255,0,0,0-1.753-.7,3.689,3.689,0,0,0-1.937.541,14.575,14.575,0,0,0-2.29,1.908,2.935,2.935,0,0,0-1.012-1.708,3.659,3.659,0,0,0-2.3-.607,5.992,5.992,0,0,0-1.827.307q-.965.307-2.022.74l-.287,1.174q.313-.117.753-.245a3.037,3.037,0,0,1,.857-.131,1.712,1.712,0,0,1,1.134.275,1.407,1.407,0,0,1,.295,1.035,5.022,5.022,0,0,1-.123.98l-.2.955-1.8,8.048h4.305l2.063-9.266a10.174,10.174,0,0,1,1.206-1.209,5.833,5.833,0,0,1,1.508-.9c-.236.55-.407.962-.517,1.232a2.608,2.608,0,0,0-.162.97,1.415,1.415,0,0,0,.562,1.087,2.291,2.291,0,0,0,1.543.486,2.633,2.633,0,0,0,1.179-.217,2.676,2.676,0,0,0,.8-.66,2.564,2.564,0,0,0,.511-.941,3.841,3.841,0,0,0,.17-1.137c0-.126,0-.247-.012-.364.208-.075.5-.164.774-.245a3.055,3.055,0,0,1,.859-.131,1.618,1.618,0,0,1,1.125.3,1.35,1.35,0,0,1,.314,1.006,5.654,5.654,0,0,1-.227,1.525c-.152.537-.316,1.078-.489,1.629q-.313.968-.522,1.686a4.892,4.892,0,0,0-.206,1.349,3.735,3.735,0,0,0,1.37,3.113,5.8,5.8,0,0,0,3.7,1.086,7.469,7.469,0,0,0,3.371-.809,8.749,8.749,0,0,0,2.952-2.522,11.149,11.149,0,0,0,1.744-3.356m5.6-6.986a6.067,6.067,0,0,0-1.832.307q-.97.307-2.028.738l-.287,1.176q.313-.117.75-.245a2.978,2.978,0,0,1,.856-.129,1.691,1.691,0,0,1,1.15.287,1.381,1.381,0,0,1,.3,1.018,4.622,4.622,0,0,1-.1.895c-.065.328-.146.674-.242,1.041l-1.078,3.815c-.1.4-.165.761-.211,1.078a7.118,7.118,0,0,0-.065.934,2.477,2.477,0,0,0,.868,1.941,3.561,3.561,0,0,0,2.434.765,5.426,5.426,0,0,0,1.788-.269q.769-.266,2.062-.777l.289-1.176a5,5,0,0,1-.714.241,3.361,3.361,0,0,1-.883.134,1.883,1.883,0,0,1-1.167-.274,1.279,1.279,0,0,1-.337-1.033,5.6,5.6,0,0,1,.1-.889c.071-.391.149-.74.236-1.044l1.074-3.8a5.879,5.879,0,0,0,.215-1.15c.041-.418.06-.711.06-.875a2.5,2.5,0,0,0-.844-1.955,3.5,3.5,0,0,0-2.4-.75m4.2-2.866a2.282,2.282,0,0,0,0-3.386,2.684,2.684,0,0,0-3.627,0,2.27,2.27,0,0,0,0,3.386,2.706,2.706,0,0,0,3.627,0m12.165,6.216-1.662,7.1a5.246,5.246,0,0,1-1.047.883,2.161,2.161,0,0,1-1.179.361,2.017,2.017,0,0,1-1-.224,1.64,1.64,0,0,1-.63-.627,2.838,2.838,0,0,1-.32-.928,6.865,6.865,0,0,1-.1-1.191,12.3,12.3,0,0,1,.313-2.765,9.63,9.63,0,0,1,.859-2.373,5.772,5.772,0,0,1,1.281-1.654,2.379,2.379,0,0,1,1.58-.621,2.212,2.212,0,0,1,.937.176,1.494,1.494,0,0,1,.612.517,1.7,1.7,0,0,1,.272.668,3.487,3.487,0,0,1,.078.678m5.583,9.144.286-1.176a6.513,6.513,0,0,1-.726.233,3.434,3.434,0,0,1-.884.143,1.878,1.878,0,0,1-1.179-.283,1.277,1.277,0,0,1-.341-1.027,5.205,5.205,0,0,1,.119-.923q.117-.609.223-1.014l1.913-8.051-.182-.211-4,.835a4.133,4.133,0,0,0-1.441-.747,6.955,6.955,0,0,0-2.054-.274,7.048,7.048,0,0,0-3.053.686,8.148,8.148,0,0,0-2.528,1.863,9.374,9.374,0,0,0-1.71,2.758,8.836,8.836,0,0,0-.639,3.361,5.452,5.452,0,0,0,1.149,3.666,4.261,4.261,0,0,0,3.421,1.34,4.527,4.527,0,0,0,1.338-.188,6.977,6.977,0,0,0,1.155-.475,6.588,6.588,0,0,0,1.039-.651,10.2,10.2,0,0,1,.971-.716,2.786,2.786,0,0,0,1.116,1.367,3.847,3.847,0,0,0,2.147.529,5.5,5.5,0,0,0,1.794-.268q.774-.268,2.068-.777m18.135-.053.289-1.177a5.137,5.137,0,0,1-.72.241,3.522,3.522,0,0,1-.892.135,1.884,1.884,0,0,1-1.173-.275,1.288,1.288,0,0,1-.334-1.032,5.606,5.606,0,0,1,.1-.889c.071-.392.149-.74.235-1.045l.994-3.671a6.517,6.517,0,0,0,.215-1.156c.03-.361.045-.642.045-.842a2.606,2.606,0,0,0-.816-1.935,3.1,3.1,0,0,0-2.265-.8,6.715,6.715,0,0,0-2.907.645,13.416,13.416,0,0,0-2.735,1.8,2.937,2.937,0,0,0-1.014-1.708,3.676,3.676,0,0,0-2.308-.607,6.011,6.011,0,0,0-1.83.307q-.968.307-2.027.74l-.287,1.174c.209-.078.462-.159.753-.245a3.057,3.057,0,0,1,.86-.131,1.681,1.681,0,0,1,1.12.283,1.365,1.365,0,0,1,.307,1.027,5.023,5.023,0,0,1-.123.98l-.2.955-1.857,8.048h4.311l2.168-9.448a6.671,6.671,0,0,1,1.841-1.284,3.579,3.579,0,0,1,1.268-.346,1.274,1.274,0,0,1,1.018.353,1.467,1.467,0,0,1,.3.98,5.036,5.036,0,0,1-.072.737q-.072.451-.217,1.014l-.947,3.477a7.008,7.008,0,0,0-.217,1.222c-.021.326-.033.6-.033.8a2.494,2.494,0,0,0,.863,1.928,3.5,3.5,0,0,0,2.422.777,5.46,5.46,0,0,0,1.794-.268q.774-.266,2.069-.776m11.881-9.091-1.66,7.1a5.3,5.3,0,0,1-1.048.883,2.161,2.161,0,0,1-1.179.361,2.011,2.011,0,0,1-1-.224,1.653,1.653,0,0,1-.632-.627,2.8,2.8,0,0,1-.319-.928,6.867,6.867,0,0,1-.1-1.191,12.3,12.3,0,0,1,.311-2.765,9.63,9.63,0,0,1,.859-2.373,5.776,5.776,0,0,1,1.283-1.654,2.371,2.371,0,0,1,1.58-.621,2.209,2.209,0,0,1,.935.176,1.494,1.494,0,0,1,.612.517,1.7,1.7,0,0,1,.274.668,3.593,3.593,0,0,1,.077.678m3.08,8.061a1.277,1.277,0,0,1-.34-1.027,5.438,5.438,0,0,1,.116-.923q.12-.609.223-1.014l1.914-8.051-.182-.211-4,.835a4.141,4.141,0,0,0-1.442-.747,6.962,6.962,0,0,0-2.054-.274,7.041,7.041,0,0,0-3.051.686,8.179,8.179,0,0,0-2.531,1.863,9.433,9.433,0,0,0-1.708,2.758,8.837,8.837,0,0,0-.639,3.361,5.445,5.445,0,0,0,1.15,3.666,4.255,4.255,0,0,0,3.419,1.34,4.527,4.527,0,0,0,1.338-.188,6.978,6.978,0,0,0,1.155-.475,6.588,6.588,0,0,0,1.039-.651,10.437,10.437,0,0,1,.973-.716,2.783,2.783,0,0,0,1.114,1.367,3.847,3.847,0,0,0,2.147.529,5.476,5.476,0,0,0,1.792-.268q.778-.268,2.069-.777l.287-1.176a6.568,6.568,0,0,1-.728.233,3.425,3.425,0,0,1-.884.143,1.878,1.878,0,0,1-1.179-.283" transform="translate(3.17 23.562)" fill="#fff"/>
  </g>
</svg>
